<svg preserveAspectRatio="none" width="100%" height="100%" overflow="visible" style="display: block;" viewBox="0 0 17 17" fill="none" xmlns="http://www.w3.org/2000/svg">
<g id="Instagram-Logo-Bold Streamline Phosphor" clip-path="url(#clip0_1109_8126)">
<path id="Vector" d="M8.5 4.79778C5.65003 4.79765 3.86882 7.88275 5.2937 10.351C6.71857 12.8192 10.281 12.8193 11.7061 10.3513C12.0311 9.78841 12.2022 9.14993 12.2022 8.5C12.2001 6.4562 10.5438 4.7999 8.5 4.79778ZM8.5 10.3511C7.07501 10.3511 6.18439 8.80852 6.89689 7.57444C7.60938 6.34037 9.39061 6.34037 10.1031 7.57444C10.2656 7.85585 10.3511 8.17506 10.3511 8.5C10.3511 9.52234 9.52234 10.3511 8.5 10.3511ZM12.2022 0.17H4.79778C2.24316 0.172975 0.172975 2.24316 0.17 4.79778V12.2022C0.172975 14.7568 2.24316 16.827 4.79778 16.83H12.2022C14.7568 16.827 16.827 14.7568 16.83 12.2022V4.79778C16.827 2.24316 14.7568 0.172975 12.2022 0.17ZM14.9789 12.2022C14.9789 13.7357 13.7357 14.9789 12.2022 14.9789H4.79778C3.26427 14.9789 2.02111 13.7357 2.02111 12.2022V4.79778C2.02111 3.26427 3.26427 2.02111 4.79778 2.02111H12.2022C13.7357 2.02111 14.9789 3.26427 14.9789 4.79778V12.2022ZM13.7448 4.48926C13.7448 5.43925 12.7164 6.03299 11.8937 5.558C11.071 5.083 11.071 3.89552 11.8937 3.42052C12.0813 3.3122 12.2941 3.25519 12.5107 3.25519C13.1923 3.25521 13.7448 3.80772 13.7448 4.48926Z" fill="var(--fill-0, #4A4847)"/>
</g>
<defs>
<clipPath id="clip0_1109_8126">
<rect width="17" height="17" fill="white"/>
</clipPath>
</defs>
</svg>
