<svg preserveAspectRatio="none" width="100%" height="100%" overflow="visible" style="display: block;" viewBox="0 0 17 17" fill="none" xmlns="http://www.w3.org/2000/svg">
<g id="Tiktok Streamline Simple-Icons" clip-path="url(#clip0_1109_8133)">
<path id="Vector" d="M8.87212 0.0141667C9.80004 0 10.7209 0.00708333 11.6417 0C11.6984 1.08375 12.088 2.18875 12.8813 2.95375C13.6746 3.74 14.7938 4.10125 15.8846 4.22167V7.07625C14.8646 7.04083 13.8375 6.82833 12.9096 6.38917C12.5059 6.205 12.1305 5.97125 11.7621 5.73042C11.755 7.79875 11.7692 9.86708 11.748 11.9283C11.6913 12.92 11.3655 13.9046 10.7917 14.7192C9.86379 16.0792 8.25587 16.9646 6.60546 16.9929C5.59254 17.0496 4.57962 16.7733 3.71546 16.2633C2.28462 15.4204 1.27879 13.8762 1.13004 12.2187C1.11587 11.8646 1.10879 11.5104 1.12296 11.1633C1.25046 9.8175 1.91629 8.52833 2.95046 7.65C4.12629 6.63 5.76962 6.14125 7.30671 6.43167C7.32087 7.48 7.27837 8.52833 7.27837 9.57667C6.57712 9.35 5.75546 9.41375 5.13921 9.83875C4.69296 10.1292 4.35296 10.5754 4.17587 11.0783C4.02712 11.4396 4.06962 11.8362 4.07671 12.2187C4.24671 13.3804 5.36587 14.3579 6.55587 14.2517C7.34921 14.2446 8.10712 13.7842 8.51796 13.1113C8.65254 12.8775 8.80129 12.6367 8.80837 12.3604C8.87921 11.0925 8.85087 9.83167 8.85796 8.56375C8.86504 5.70917 8.85087 2.86167 8.87212 0.0141667Z" fill="var(--fill-0, #4A4847)"/>
</g>
<defs>
<clipPath id="clip0_1109_8133">
<rect width="17" height="17" fill="white"/>
</clipPath>
</defs>
</svg>
