<svg preserveAspectRatio="none" width="100%" height="100%" overflow="visible" style="display: block;" viewBox="0 0 32 32" fill="none" xmlns="http://www.w3.org/2000/svg">
<g id="Whatsapp-Icon Streamline Svg-Logos" clip-path="url(#clip0_1109_8146)">
<path id="Vector" d="M1.06892 15.863C1.06813 18.5043 1.75831 21.0834 3.07061 23.3566L0.943359 31.1236L8.89183 29.0395C11.0816 30.233 13.5473 30.863 16.0566 30.8636H16.0633C24.3265 30.8636 31.053 24.1395 31.0565 15.8748C31.0581 11.8699 29.4999 8.10408 26.6688 5.27085C23.8383 2.43778 20.0737 0.87674 16.0626 0.875C7.79843 0.875 1.07239 7.59868 1.06892 15.863Z" fill="url(#paint0_linear_1109_8146)"/>
<path id="Vector_2" d="M0.534754 15.8577C0.533807 18.5941 1.24878 21.2654 2.60783 23.6199L0.404297 31.6654L8.63784 29.5065C10.9064 30.7435 13.4606 31.3956 16.0597 31.3966H16.0664C24.6261 31.3966 31.5942 24.4306 31.5979 15.8701C31.5993 11.7213 29.985 7.82013 27.0529 4.88533C24.1204 1.95088 20.2211 0.333768 16.0664 0.332031C7.50511 0.332031 0.538227 7.29686 0.534754 15.8577ZM5.43791 23.2145L5.13054 22.7265C3.83814 20.6716 3.15602 18.297 3.15697 15.8586C3.15982 8.74326 8.95057 2.95441 16.0713 2.95441C19.5195 2.95583 22.7604 4.30003 25.1978 6.73903C27.6352 9.1782 28.9764 12.4206 28.9755 15.8692C28.9723 22.9847 23.1814 28.7743 16.0664 28.7743H16.0613C13.7446 28.7731 11.4725 28.151 9.49087 26.9753L9.01927 26.6956L4.13334 27.9766L5.43791 23.2145Z" fill="url(#paint1_linear_1109_8146)"/>
<path id="Vector_3" d="M12.184 9.36714C11.8932 8.72084 11.5873 8.70791 11.3108 8.69654C11.0845 8.68691 10.8256 8.68751 10.5671 8.68751C10.3082 8.68751 9.88776 8.78481 9.53226 9.17301C9.17643 9.56137 8.17383 10.5002 8.17383 12.4094C8.17383 14.3189 9.56463 16.1639 9.75843 16.4231C9.95253 16.6818 12.4432 20.7253 16.3876 22.2808C19.6659 23.5735 20.3331 23.3164 21.0446 23.2516C21.7561 23.187 23.3406 22.3132 23.6639 21.4069C23.9874 20.5009 23.9874 19.7241 23.8904 19.5619C23.7934 19.4002 23.5346 19.3031 23.1465 19.1091C22.7583 18.915 20.8505 17.9761 20.4948 17.8466C20.139 17.7172 19.8803 17.6526 19.6214 18.0411C19.3627 18.4292 18.6194 19.3031 18.393 19.5619C18.1666 19.8213 17.9402 19.8536 17.5521 19.6595C17.1639 19.4648 15.914 19.0554 14.4313 17.7335C13.2776 16.7048 12.4988 15.4346 12.2723 15.046C12.046 14.658 12.2481 14.4478 12.4427 14.2543C12.6171 14.0804 12.8309 13.8012 13.025 13.5747C13.2187 13.3481 13.2832 13.1863 13.4126 12.9275C13.5421 12.6685 13.4774 12.4418 13.3804 12.2477C13.2832 12.0536 12.5291 10.1345 12.184 9.36714Z" fill="var(--fill-0, white)"/>
</g>
<defs>
<linearGradient id="paint0_linear_1109_8146" x1="1506.6" y1="3025.74" x2="1506.6" y2="0.876442" gradientUnits="userSpaceOnUse">
<stop stop-color="#1FAF38"/>
<stop offset="1" stop-color="#60D669"/>
</linearGradient>
<linearGradient id="paint1_linear_1109_8146" x1="1560.08" y1="3133.67" x2="1560.08" y2="0.328109" gradientUnits="userSpaceOnUse">
<stop stop-color="#F9F9F9"/>
<stop offset="1" stop-color="white"/>
</linearGradient>
<clipPath id="clip0_1109_8146">
<rect width="32" height="32" fill="white"/>
</clipPath>
</defs>
</svg>
