<svg preserveAspectRatio="none" width="100%" height="100%" overflow="visible" style="display: block;" viewBox="0 0 25 27" fill="none" xmlns="http://www.w3.org/2000/svg">
<g id="Component 1" clip-path="url(#clip0_0_62)">
<path id="Vector" d="M23.0802 6.83862H0.0891113V14.154H23.0802V6.83862Z" stroke="var(--stroke-0, #4A4847)" stroke-width="0.8" stroke-miterlimit="10" stroke-linecap="round" stroke-linejoin="round"/>
<path id="Vector_2" d="M4.26929 14.1543V23.5598" stroke="var(--stroke-0, #4A4847)" stroke-width="0.8" stroke-miterlimit="10" stroke-linecap="round" stroke-linejoin="round"/>
<path id="Vector_3" d="M2.1792 23.5596H6.3594" stroke="var(--stroke-0, #4A4847)" stroke-width="0.8" stroke-miterlimit="10" stroke-linecap="round" stroke-linejoin="round"/>
<path id="Vector_4" d="M18.9001 14.1543V23.5598" stroke="var(--stroke-0, #4A4847)" stroke-width="0.8" stroke-miterlimit="10" stroke-linecap="round" stroke-linejoin="round"/>
<path id="Vector_5" d="M20.99 23.5596H16.8098" stroke="var(--stroke-0, #4A4847)" stroke-width="0.8" stroke-miterlimit="10" stroke-linecap="round" stroke-linejoin="round"/>
<path id="Vector_6" d="M0.0891113 14.154L7.40447 6.83862" stroke="var(--stroke-0, #4A4847)" stroke-width="0.8" stroke-miterlimit="10" stroke-linecap="round" stroke-linejoin="round"/>
<path id="Vector_7" d="M5.31445 14.154L12.6298 6.83862" stroke="var(--stroke-0, #4A4847)" stroke-width="0.8" stroke-miterlimit="10" stroke-linecap="round" stroke-linejoin="round"/>
<path id="Vector_8" d="M10.5396 14.154L17.8549 6.83862" stroke="var(--stroke-0, #4A4847)" stroke-width="0.8" stroke-miterlimit="10" stroke-linecap="round" stroke-linejoin="round"/>
<path id="Vector_9" d="M15.7649 14.154L23.0802 6.83862" stroke="var(--stroke-0, #4A4847)" stroke-width="0.8" stroke-miterlimit="10" stroke-linecap="round" stroke-linejoin="round"/>
<path id="Vector_10" d="M6.3594 4.22555L4.2693 5.79313L2.1792 4.22555V2.13545L4.2693 0.567871L6.3594 2.13545V4.22555Z" stroke="var(--stroke-0, #4A4847)" stroke-width="0.8" stroke-miterlimit="10" stroke-linecap="round" stroke-linejoin="round"/>
<path id="Vector_11" d="M20.99 4.22555L18.8999 5.79313L16.8098 4.22555V2.13545L18.8999 0.567871L20.99 2.13545V4.22555Z" stroke="var(--stroke-0, #4A4847)" stroke-width="0.8" stroke-miterlimit="10" stroke-linecap="round" stroke-linejoin="round"/>
</g>
<defs>
<clipPath id="clip0_0_62">
<rect width="25" height="27" fill="white"/>
</clipPath>
</defs>
</svg>
