<svg preserveAspectRatio="none" width="100%" height="100%" overflow="visible" style="display: block;" viewBox="0 0 19.7195 19.7195" fill="none" xmlns="http://www.w3.org/2000/svg">
<g id="Book-Open-Bookmark-3--Streamline-Cyber 1" clip-path="url(#clip0_1109_8166)">
<path id="Vector" d="M14.3788 2.56788V7.80587L15.6113 6.16258L16.8437 7.39505V2.25977" stroke="var(--stroke-0, #4A4847)" stroke-miterlimit="10" stroke-linecap="round" stroke-linejoin="round"/>
<path id="Vector_2" d="M18.4869 16.8435L11.9137 17.6651L9.44881 19.3084L6.98387 17.6651L0.410712 16.8435V2.05384L6.98387 2.87548L9.44881 4.9296L11.9137 2.87548L18.4869 2.05384V16.8435Z" stroke="var(--stroke-0, #4A4847)" stroke-miterlimit="10" stroke-linecap="round" stroke-linejoin="round"/>
<path id="Vector_3" d="M9.44903 4.92966V19.3085" stroke="var(--stroke-0, #4A4847)" stroke-miterlimit="10" stroke-linecap="round" stroke-linejoin="round"/>
<path id="Vector_4" d="M7.39481 6.57358L2.05412 5.93927" stroke="var(--stroke-0, #4A4847)" stroke-miterlimit="10" stroke-linecap="round" stroke-linejoin="round"/>
<path id="Vector_5" d="M7.39481 8.40408L2.05412 7.76974" stroke="var(--stroke-0, #4A4847)" stroke-miterlimit="10" stroke-linecap="round" stroke-linejoin="round"/>
<path id="Vector_6" d="M7.39481 10.2348L2.05412 9.60134" stroke="var(--stroke-0, #4A4847)" stroke-miterlimit="10" stroke-linecap="round" stroke-linejoin="round"/>
<path id="Vector_7" d="M4.72442 11.7498L2.05408 11.4326" stroke="var(--stroke-0, #4A4847)" stroke-miterlimit="10" stroke-linecap="round" stroke-linejoin="round"/>
<path id="Vector_8" d="M11.503 10.2348L16.8437 9.60134" stroke="var(--stroke-0, #4A4847)" stroke-miterlimit="10" stroke-linecap="round" stroke-linejoin="round"/>
<path id="Vector_9" d="M11.503 12.3241L14.1734 12.007" stroke="var(--stroke-0, #4A4847)" stroke-miterlimit="10" stroke-linecap="round" stroke-linejoin="round"/>
<path id="Vector_10" d="M11.5031 6.57399L12.7355 6.42773" stroke="var(--stroke-0, #4A4847)" stroke-miterlimit="10" stroke-linecap="round" stroke-linejoin="round"/>
<path id="Vector_11" d="M11.5031 8.40992L12.7355 8.26367" stroke="var(--stroke-0, #4A4847)" stroke-miterlimit="10" stroke-linecap="round" stroke-linejoin="round"/>
</g>
<defs>
<clipPath id="clip0_1109_8166">
<rect width="19.7195" height="19.7195" fill="white"/>
</clipPath>
</defs>
</svg>
